# xmcd CD database file
#
# Track frame offsets:
#	150
#	25636
#	47466
#	70691
#	100614
#	126908
#	159074
#	184879
#	204215
#	221957
#	237943
#
# Disc length: 3643 seconds
#
# Revision: 0
# Processed by: cddbd v1.5.2PL0 Copyright (c) Steve Scherf et al.
# Submitted via: CDex 1.51
#
DISCID=880e390b
DTITLE=Phil Urso and Carl Saunders - Phil Urso and Carl Saunders Salute Chet Baker
DYEAR=2003
DGENRE=Jazz
TTITLE0=Jumping Off A Cleff
TTITLE1=For Minors Only 
TTITLE2=Halema
TTITLE3=Mister B
TTITLE4=This Is The Thing
TTITLE5=Funk In Deep Freeze
TTITLE6=My Funny Valentine
TTITLE7=Baby Breeze
TTITLE8=Way To Go
TTITLE9=Worryin' The Life Out Of Me
TTITLE10=Line For Lyons
EXTD=YEAR: 2003
EXTT0=
EXTT1=
EXTT2=
EXTT3=
EXTT4=
EXTT5=
EXTT6=
EXTT7=
EXTT8=
EXTT9=
EXTT10=
PLAYORDER=
